<svg xmlns="http://www.w3.org/2000/svg" id="cancel" width="15.201" height="15.2" viewBox="0 0 15.201 15.2">
  <g id="Group_1090" data-name="Group 1090">
    <path id="Path_1218" data-name="Path 1218" d="M9.275,7.616l5.683-5.684a.833.833,0,0,0,0-1.176l-.5-.5a.833.833,0,0,0-1.176,0L7.6,5.942,1.917.259a.833.833,0,0,0-1.176,0l-.5.5a.832.832,0,0,0,0,1.176L5.927,7.616.243,13.3a.834.834,0,0,0,0,1.176l.5.5a.833.833,0,0,0,1.176,0L7.6,9.29l5.683,5.683a.825.825,0,0,0,.588.243h0a.825.825,0,0,0,.588-.243l.5-.5a.834.834,0,0,0,0-1.176Z" transform="translate(0 -0.016)" fill="#939996"/>
  </g>
</svg>