<svg xmlns="http://www.w3.org/2000/svg" width="36" height="36" viewBox="0 0 36 36">
  <g id="circle" transform="translate(-1 -1)">
    <path id="Path_2064" data-name="Path 2064" d="M22.884,11.093A1.636,1.636,0,1,0,20.57,8.779l-7.657,7.657-3.1-3.217a1.636,1.636,0,1,0-2.357,2.27l4.255,4.418a1.636,1.636,0,0,0,2.336.022Z" transform="translate(3.818 4.645)" fill="#61ba93"/>
    <path id="Path_2065" data-name="Path 2065" d="M19,1A18,18,0,1,0,37,19,18,18,0,0,0,19,1ZM4.273,19A14.727,14.727,0,1,1,19,33.727,14.727,14.727,0,0,1,4.273,19Z" fill="#61ba93" fill-rule="evenodd"/>
  </g>
</svg>