<svg xmlns="http://www.w3.org/2000/svg" width="36" height="36" viewBox="0 0 36 36">
  <g id="Group_2196" data-name="Group 2196" transform="translate(-55 -2284)">
    <g id="circle" transform="translate(54 2283)">
      <path id="Path_2065" data-name="Path 2065" d="M19,1A18,18,0,1,0,37,19,18,18,0,0,0,19,1ZM4.273,19A14.727,14.727,0,1,1,19,33.727,14.727,14.727,0,0,1,4.273,19Z" fill="#4fb0e6" fill-rule="evenodd"/>
    </g>
    <g id="Group_2195" data-name="Group 2195" transform="translate(49.054 151.137)">
      <path id="Path_2072" data-name="Path 2072" d="M204.365,224.08a1.764,1.764,0,0,1-1.064-.239,1.105,1.105,0,0,1-.305-.907,4.713,4.713,0,0,1,.1-.824,9.082,9.082,0,0,1,.214-.923l.973-3.348a5.068,5.068,0,0,0,.2-1.014c0-.371.049-.627.049-.775a2.168,2.168,0,0,0-.767-1.723,3.224,3.224,0,0,0-2.177-.66,5.646,5.646,0,0,0-1.649.272q-.874.272-1.839.651l-.28,1.088c.19-.066.421-.14.684-.223a2.8,2.8,0,0,1,.775-.115,1.583,1.583,0,0,1,1.047.256,1.2,1.2,0,0,1,.272.9,3.913,3.913,0,0,1-.091.824q-.087.433-.223.915L199.3,221.6a9.609,9.609,0,0,0-.19.948,5.891,5.891,0,0,0-.058.824,2.152,2.152,0,0,0,.824,1.707,3.3,3.3,0,0,0,2.21.676,5.086,5.086,0,0,0,1.649-.239q.7-.239,1.872-.684l.264-1.039a4.558,4.558,0,0,1-.651.214A3.131,3.131,0,0,1,204.365,224.08Z" transform="translate(-178 1934.4)" fill="#4fb0e6"/>
      <path id="Path_2073" data-name="Path 2073" d="M252.542,128.608a2.508,2.508,0,0,0-3.3,0,1.971,1.971,0,0,0,0,2.985,2.473,2.473,0,0,0,3.3,0,1.98,1.98,0,0,0,0-2.985Z" transform="translate(-225.147 2014)" fill="#4fb0e6"/>
    </g>
  </g>
</svg>